<?xml version="1.0" encoding="UTF-8" standalone="no"?>
<svg
   xmlns:dc="http://purl.org/dc/elements/1.1/"
   xmlns:cc="http://creativecommons.org/ns#"
   xmlns:rdf="http://www.w3.org/1999/02/22-rdf-syntax-ns#"
   xmlns:svg="http://www.w3.org/2000/svg"
   xmlns="http://www.w3.org/2000/svg"
   xmlns:sodipodi="http://sodipodi.sourceforge.net/DTD/sodipodi-0.dtd"
   xmlns:inkscape="http://www.inkscape.org/namespaces/inkscape"
   width="32"
   height="32"
   viewBox="0 0 8.4666665 8.466667"
   version="1.1"
   id="svg8"
   sodipodi:docname="MenuManager.svg"
   inkscape:version="1.0.2-2 (e86c870879, 2021-01-15)">
  <sodipodi:namedview
     pagecolor="#ffffff"
     bordercolor="#666666"
     borderopacity="1"
     objecttolerance="10"
     gridtolerance="10"
     guidetolerance="10"
     inkscape:pageopacity="0"
     inkscape:pageshadow="2"
     inkscape:window-width="1920"
     inkscape:window-height="1017"
     id="namedview8"
     showgrid="false"
     fit-margin-top="0"
     fit-margin-left="0"
     fit-margin-right="0"
     fit-margin-bottom="0"
     inkscape:zoom="10.720244"
     inkscape:cx="3.9774782"
     inkscape:cy="30.292477"
     inkscape:window-x="-8"
     inkscape:window-y="-8"
     inkscape:window-maximized="1"
     inkscape:current-layer="svg8" />
  <defs
     id="defs2" />
  <metadata
     id="metadata5">
    <rdf:RDF>
      <cc:Work
         rdf:about="">
        <dc:format>image/svg+xml</dc:format>
        <dc:type
           rdf:resource="http://purl.org/dc/dcmitype/StillImage" />
        <dc:title></dc:title>
      </cc:Work>
    </rdf:RDF>
  </metadata>
  <g
     id="layer4"
     style="display:inline"
     transform="scale(2.2857143)">
    <path
       id="path871-7"
       style="display:inline;fill:#a5efac;fill-opacity:1;stroke-width:0.999999"
       d="M 2,0 C 0.89540019,0 0,0.89539974 0,2 V 3 H 14 V 2 C 14,0.89539974 13.10457,0 12,0 Z m 9,1 h 1 V 2 H 11 Z M 0,4 v 6.345703 L 1.8164062,9.8925781 C 2.3064828,9.9083939 2.3683679,9.4673882 2.5390625,9.0976562 L 1.34375,7.1035156 2.7578125,5.6894531 4.359375,6.6503906 c 0.3353665,0.3572018 0.6927791,0.091045 1.0761719,-0.046875 L 6,4.3457031 c 0.6664935,-1.4e-4 1.3333678,4e-5 2,0 L 8.453125,6.1621094 C 8.4373092,6.652186 8.878315,6.7140709 9.2480469,6.8847656 L 11.242188,5.6894531 12.65625,7.1035156 11.695312,8.7070312 c -0.356491,0.3350492 -0.09179,0.6915432 0.04688,1.0742188 L 14,10.345703 V 4 Z M 6.9570312,9.3378906 C 6.8049221,9.3413844 6.6510299,9.3653813 6.5,9.4101562 5.2579674,9.6846248 4.5845562,11.265653 5.2714844,12.345703 H 0.03515625 C 0.19977182,13.284494 1.0140611,14 2,14 h 10 c 0.985966,0 1.800233,-0.715506 1.964844,-1.654297 H 9.1816406 C 8.3944578,12.523506 9.104409,11.811444 9,11.345703 9.0399726,10.243855 8.0217953,9.313434 6.9570312,9.3378906 Z M 13.964844,12.345703 H 14 V 12 c 0,0.118634 -0.01535,0.232745 -0.03516,0.345703 z m -13.92968775,0 C 0.01534922,12.232745 0,12.118634 0,12 v 0.345703 z"
       transform="scale(0.26458333)" />
    <g
       style="enable-background:new"
       id="g895"
       transform="matrix(0.26458333,0,0,0.26458333,-0.26456746,0.88543521)" />
  </g>
</svg>
