<?xml version="1.0" encoding="UTF-8" standalone="no"?>
<svg
   xmlns:dc="http://purl.org/dc/elements/1.1/"
   xmlns:cc="http://creativecommons.org/ns#"
   xmlns:rdf="http://www.w3.org/1999/02/22-rdf-syntax-ns#"
   xmlns:svg="http://www.w3.org/2000/svg"
   xmlns="http://www.w3.org/2000/svg"
   xmlns:sodipodi="http://sodipodi.sourceforge.net/DTD/sodipodi-0.dtd"
   xmlns:inkscape="http://www.inkscape.org/namespaces/inkscape"
   version="1.1"
   id="svg897"
   width="16"
   height="16"
   inkscape:version="1.0.2-2 (e86c870879, 2021-01-15)"
   sodipodi:docname="рисунок-1.svg">
  <defs
     id="defs891" />
  <sodipodi:namedview
     id="base"
     pagecolor="#ffffff"
     bordercolor="#666666"
     borderopacity="1.0"
     inkscape:pageopacity="0.0"
     inkscape:pageshadow="2"
     inkscape:zoom="15.839192"
     inkscape:cx="14.345897"
     inkscape:cy="21.680314"
     inkscape:document-units="mm"
     inkscape:current-layer="layer1"
     inkscape:document-rotation="0"
     showgrid="false"
     units="px"
     inkscape:window-width="1574"
     inkscape:window-height="1040"
     inkscape:window-x="208"
     inkscape:window-y="0"
     inkscape:window-maximized="0" />
  <metadata
     id="metadata894">
    <rdf:RDF>
      <cc:Work
         rdf:about="">
        <dc:format>image/svg+xml</dc:format>
        <dc:type
           rdf:resource="http://purl.org/dc/dcmitype/StillImage" />
        <dc:title></dc:title>
      </cc:Work>
    </rdf:RDF>
  </metadata>
  <g
     inkscape:label="Слой 1"
     inkscape:groupmode="layer"
     id="layer1">
    <path
       id="path10"
       style="display:inline;fill:#a5efac;fill-opacity:1;stroke-width:1.1428;stroke-miterlimit:4;stroke-dasharray:none"
       d="M 2.2854866,0 C 1.0230591,0 0,1.0233629 0,2.2857603 V 3.4283217 H 16 V 2.2857603 C 16,1.0233629 14.976897,0 13.714513,0 Z M 12.571611,1.1428809 h 1.142902 V 2.2857603 H 12.571611 Z M 0,4.571201 V 13.71424 C 0,14.976637 1.0230591,16 2.2854866,16 H 13.714513 C 14.976941,16 16,14.976637 16,13.71424 V 4.571201 Z M 6.4652989,5.4401472 H 10.763927 V 7.5892575 H 6.4652989 V 6.8728868 h -1.433088 v 2.865481 H 8.6144538 V 9.0219987 H 12.91308 V 11.171427 H 8.6144538 V 10.455058 H 5.0322109 v 2.865481 H 8.6144538 V 12.604168 H 12.91308 v 2.14911 H 8.6144538 V 14.036909 H 5.0322109 4.3158275 V 6.8728868 H 2.8830574 V 6.1565163 h 3.5822415 z" />
  </g>
</svg>
